<mxfile host="app.diagrams.net" modified="2024-04-07T03:16:49.910Z" agent="Mozilla/5.0 (Windows NT 10.0; Win64; x64) AppleWebKit/537.36 (KHTML, like Gecko) Chrome/122.0.0.0 Safari/537.36 OPR/108.0.0.0" etag="SfP6aAeEIfksSxQsG09z" version="24.2.2" type="github">
  <diagram name="Página-1" id="wIKUW0sO_0uCQAr8_M2o">
    <mxGraphModel dx="1380" dy="783" grid="1" gridSize="10" guides="1" tooltips="1" connect="1" arrows="1" fold="1" page="1" pageScale="1" pageWidth="827" pageHeight="1169" math="0" shadow="0">
      <root>
        <mxCell id="0" />
        <mxCell id="1" parent="0" />
        <mxCell id="-VZP5fK5Uo64a7TJy_nP-1" value="Técnico" style="swimlane;whiteSpace=wrap" vertex="1" parent="1">
          <mxGeometry x="154.5" y="48" width="280" height="452" as="geometry" />
        </mxCell>
        <mxCell id="-VZP5fK5Uo64a7TJy_nP-2" value="App" style="swimlane;whiteSpace=wrap" vertex="1" parent="1">
          <mxGeometry x="434.5" y="48" width="295.5" height="452" as="geometry" />
        </mxCell>
        <mxCell id="-VZP5fK5Uo64a7TJy_nP-3" value="API" style="swimlane;whiteSpace=wrap" vertex="1" parent="1">
          <mxGeometry x="730" y="48" width="270" height="452" as="geometry" />
        </mxCell>
        <mxCell id="-VZP5fK5Uo64a7TJy_nP-4" value="" style="endArrow=open;strokeColor=#FF0000;endFill=1;rounded=0;entryX=0.5;entryY=0;entryDx=0;entryDy=0;exitX=0;exitY=0.5;exitDx=0;exitDy=0;" edge="1" parent="1" source="-VZP5fK5Uo64a7TJy_nP-10" target="-VZP5fK5Uo64a7TJy_nP-27">
          <mxGeometry relative="1" as="geometry">
            <mxPoint x="335" y="295" as="sourcePoint" />
            <mxPoint x="610" y="390" as="targetPoint" />
            <Array as="points">
              <mxPoint x="865" y="240" />
            </Array>
          </mxGeometry>
        </mxCell>
        <mxCell id="-VZP5fK5Uo64a7TJy_nP-5" value="Recomendação de Solução" style="shape=umlFrame;whiteSpace=wrap;html=1;pointerEvents=0;width=250;height=30;" vertex="1" parent="1">
          <mxGeometry x="100" y="10" width="950" height="510" as="geometry" />
        </mxCell>
        <mxCell id="-VZP5fK5Uo64a7TJy_nP-6" value="&amp;lt;&amp;lt;Precondição&amp;gt;&amp;gt;&lt;div&gt;Ter executado &quot;Registro de novo chamado&quot;&lt;/div&gt;" style="shape=note;size=20;whiteSpace=wrap;html=1;" vertex="1" parent="1">
          <mxGeometry x="460" y="88" width="230" height="70" as="geometry" />
        </mxCell>
        <mxCell id="-VZP5fK5Uo64a7TJy_nP-7" value="" style="ellipse;shape=startState;fillColor=#000000;strokeColor=#ff0000;" vertex="1" parent="1">
          <mxGeometry x="260" y="88" width="30" height="30" as="geometry" />
        </mxCell>
        <mxCell id="-VZP5fK5Uo64a7TJy_nP-8" value="" style="edgeStyle=elbowEdgeStyle;elbow=horizontal;verticalAlign=bottom;endArrow=open;endSize=8;strokeColor=#FF0000;endFill=1;rounded=0;exitX=0.507;exitY=0.833;exitDx=0;exitDy=0;exitPerimeter=0;" edge="1" parent="1" source="-VZP5fK5Uo64a7TJy_nP-7" target="-VZP5fK5Uo64a7TJy_nP-9">
          <mxGeometry x="484.5" y="148" as="geometry">
            <mxPoint x="555" y="138" as="targetPoint" />
          </mxGeometry>
        </mxCell>
        <mxCell id="-VZP5fK5Uo64a7TJy_nP-9" value="Clica na opção de sugestão de soluções" style="whiteSpace=wrap;" vertex="1" parent="1">
          <mxGeometry x="220" y="150" width="110" height="60" as="geometry" />
        </mxCell>
        <mxCell id="-VZP5fK5Uo64a7TJy_nP-10" value="Seleciona o problema do chamado e mostra ícone de carregamento" style="whiteSpace=wrap;" vertex="1" parent="1">
          <mxGeometry x="512.25" y="210" width="140" height="60" as="geometry" />
        </mxCell>
        <mxCell id="-VZP5fK5Uo64a7TJy_nP-11" value="" style="endArrow=open;strokeColor=#FF0000;endFill=1;rounded=0;exitX=1;exitY=0.5;exitDx=0;exitDy=0;entryX=0.5;entryY=0;entryDx=0;entryDy=0;" edge="1" parent="1" source="-VZP5fK5Uo64a7TJy_nP-9" target="-VZP5fK5Uo64a7TJy_nP-10">
          <mxGeometry relative="1" as="geometry">
            <mxPoint x="390" y="200" as="sourcePoint" />
            <mxPoint x="621" y="182" as="targetPoint" />
            <Array as="points">
              <mxPoint x="582" y="180" />
            </Array>
          </mxGeometry>
        </mxCell>
        <mxCell id="-VZP5fK5Uo64a7TJy_nP-24" value="" style="ellipse;html=1;shape=endState;fillColor=#000000;strokeColor=#ff0000;" vertex="1" parent="1">
          <mxGeometry x="565" y="430" width="30" height="30" as="geometry" />
        </mxCell>
        <mxCell id="-VZP5fK5Uo64a7TJy_nP-25" value="" style="endArrow=open;strokeColor=#FF0000;endFill=1;rounded=0;entryX=0.5;entryY=0;entryDx=0;entryDy=0;exitX=0.5;exitY=1;exitDx=0;exitDy=0;" edge="1" parent="1" source="-VZP5fK5Uo64a7TJy_nP-29" target="-VZP5fK5Uo64a7TJy_nP-24">
          <mxGeometry relative="1" as="geometry">
            <mxPoint x="582.25" y="430" as="sourcePoint" />
            <mxPoint x="285" y="640" as="targetPoint" />
            <Array as="points" />
          </mxGeometry>
        </mxCell>
        <mxCell id="-VZP5fK5Uo64a7TJy_nP-26" value="" style="endArrow=open;strokeColor=#FF0000;endFill=1;rounded=0;entryX=0.5;entryY=0;entryDx=0;entryDy=0;exitX=1;exitY=0.5;exitDx=0;exitDy=0;" edge="1" parent="1" source="-VZP5fK5Uo64a7TJy_nP-27" target="-VZP5fK5Uo64a7TJy_nP-29">
          <mxGeometry relative="1" as="geometry">
            <mxPoint x="434.5" y="280" as="sourcePoint" />
            <mxPoint x="582.25" y="330" as="targetPoint" />
            <Array as="points">
              <mxPoint x="580" y="310" />
            </Array>
          </mxGeometry>
        </mxCell>
        <mxCell id="-VZP5fK5Uo64a7TJy_nP-27" value="Consulta base de conhecimentos, coleta link das página com melhor correspondência" style="whiteSpace=wrap;" vertex="1" parent="1">
          <mxGeometry x="790" y="270" width="150" height="80" as="geometry" />
        </mxCell>
        <mxCell id="-VZP5fK5Uo64a7TJy_nP-29" value="Exibe listagem das melhores soluções previstas" style="whiteSpace=wrap;" vertex="1" parent="1">
          <mxGeometry x="520" y="350" width="120" height="60" as="geometry" />
        </mxCell>
      </root>
    </mxGraphModel>
  </diagram>
</mxfile>
